<svg xmlns="http://www.w3.org/2000/svg" width="64" height="64" fill="none"><path fill="#fff" d="M51.535 43.64c-3.972 0-7.638-3.978-9.532-6.425-1.895 2.447-5.561 6.425-9.533 6.425-3.972 0-7.638-3.978-9.532-6.425-1.772 2.447-5.438 6.425-9.41 6.425A1.514 1.514 0 0 1 12 42.11c0-.856.672-1.53 1.528-1.53 3.177 0 7.088-5.08 8.188-6.854.305-.428.794-.734 1.283-.734.489 0 1.039.245 1.283.734 1.1 1.775 5.01 6.854 8.188 6.854 3.178 0 7.088-5.08 8.188-6.854.306-.428.795-.734 1.283-.734.55 0 1.04.245 1.284.734 1.1 1.775 5.01 6.854 8.188 6.854.855 0 1.527.674 1.527 1.53 0 .857-.55 1.53-1.405 1.53z"/><path fill="#fff" d="M51.535 52.33c-3.972 0-7.638-3.977-9.532-6.425-1.895 2.448-5.561 6.426-9.533 6.426-3.972 0-7.638-3.978-9.532-6.426-1.772 2.448-5.438 6.426-9.41 6.426A1.514 1.514 0 0 1 12 50.8c0-.857.672-1.53 1.528-1.53 3.177 0 7.088-5.08 8.188-6.855.305-.428.794-.734 1.283-.734.489 0 1.039.245 1.283.734 1.1 1.775 5.01 6.855 8.188 6.855 3.178 0 7.088-5.08 8.188-6.855.306-.428.795-.734 1.283-.734.55 0 1.04.245 1.284.734 1.1 1.775 5.01 6.855 8.188 6.855.855 0 1.527.673 1.527 1.53 0 .856-.55 1.53-1.405 1.53zM14.566 36.664c-.733 0-1.344-.49-1.527-1.224-.184-1.224-.306-2.448-.306-3.611C12.733 20.874 21.593 12 32.531 12c10.939-.06 19.799 8.874 19.799 19.83 0 1.224-.122 2.387-.305 3.55a1.453 1.453 0 0 1-1.772 1.224c-.856-.123-1.406-.919-1.222-1.775.183-.98.244-2.02.244-3 0-9.24-7.516-16.768-16.743-16.768-9.226 0-16.742 7.467-16.742 16.769 0 1.04.122 2.08.305 3.06.122.857-.367 1.652-1.222 1.775h-.306z"/></svg>